<svg xmlns="http://www.w3.org/2000/svg" width="1240" height="1240"><path d="M81.536 1.081C55.119 5.07 35.28 23.431 34.153 44.932c-.517 9.848 1.145 16.687 5.769 23.751 2.094 3.199 24.22 27.867 49.167 54.817C411.245 471.52 441.432 503.939 448.972 510c13.835 11.122 25.91 18.801 43.028 27.362 30.647 15.328 61.495 24.588 96 28.817 13.576 1.664 50.524 1.655 64-.014 54.621-6.769 104.322-27.237 141.326-58.203 7.191-6.017 61.885-64.56 204-218.355 106.796-115.573 196.082-212.323 198.413-214.999 2.332-2.676 5.482-7.395 7-10.487 2.482-5.054 2.761-6.681 2.761-16.121 0-9.775-.225-10.974-3.255-17.374-6.209-13.11-20.168-23.741-37.245-28.366C1159.066.653 1151.966.5 1083.5.5c-72.871 0-75.341.062-87 2.192-27.529 5.028-51.388 15.988-69.636 31.989-6.414 5.624-30.607 31.818-200.72 217.319-43.629 47.575-80.747 87.752-82.485 89.282-7.51 6.612-18.836 9.589-29.451 7.74-6.528-1.136-13.057-3.843-16.618-6.889-1.05-.898-63.359-68.458-138.464-150.133C384.02 110.325 319.855 40.872 316.535 37.659 299.577 21.246 272.46 8.12 244.5 2.789 234.047.797 229.868.679 160.5.436c-40.15-.141-75.684.149-78.964.645M601.5 672.594c-18.112 1.835-25.689 2.87-36.85 5.03-44.227 8.561-86.826 28.239-118.15 54.579-7.319 6.154-62.83 65.572-207.05 221.621-110.223 119.265-198.435 215.518-200.193 218.444-4.172 6.943-5.551 13.01-5.1 22.439.944 19.696 16.952 36.563 40.843 43.033 5.934 1.607 13.034 1.76 81.5 1.76 72.871 0 75.341-.062 87-2.192 26.526-4.845 49.803-15.289 67.42-30.25 9.087-7.717 6.211-4.628 153.786-165.139 72.606-78.969 133.311-144.49 134.902-145.601 5.408-3.778 12.462-5.769 20.375-5.75 9.22.023 14.45 1.481 20.433 5.697 2.525 1.779 64.027 68.035 136.673 147.235 72.645 79.2 136.612 148.633 142.148 154.297 20.353 20.82 45.592 33.727 77.263 39.511 11.659 2.13 14.129 2.192 87 2.192 68.466 0 75.566-.153 81.5-1.76 23.671-6.41 39.831-23.292 40.847-42.672.516-9.833-1.142-16.677-5.752-23.751-2.085-3.199-92.205-101.458-200.266-218.352-144.836-156.676-199.084-214.719-206.402-220.843-36.243-30.328-83.961-50.415-136.992-57.668-10.614-1.452-46.853-2.679-54.935-1.86" fill="undefined" fill-rule="evenodd"/></svg>