<svg xmlns="http://www.w3.org/2000/svg" viewBox="0 0 1071.62 200.79">
  <defs>
    <style>
      .logo-white {
        fill: #ededed;
      }

      .logo-red {
        fill: #df2b35;
      }

      .logo-blue {
        fill: #037cd5;
      }
    </style>
  </defs>
  <g>
    <path class="logo-white"
      d="M 67.9 59.5 C 53.1 59.5 41.8 63 34 69.9 a 3.7 3.7 0 0 1 -6.2 -2.8 V 12.3 C 27.8 2.5 25.4 0 15.5 0 H 12.3 C 2.5 0 0 2.5 0 12.3 V 142.4 c 0 38.4 22.6 58.4 62.2 58.4 c 41.7 0 62.4 -19.4 62.4 -58.4 V 118.9 C 124.6 79.4 105.8 59.5 67.9 59.5 Z m 28.6 82.3 c 0 23.7 -7.9 32.4 -34.1 32.4 S 27.8 165 27.8 141.8 V 118.4 c 0 -23.7 8.7 -32.7 34.6 -32.7 s 34.1 9 34.1 32.7 Z" />
    <path class="logo-white"
      d="M 649.6 59.5 c -14.8 0 -26.1 3.5 -33.9 10.4 a 3.7 3.7 0 0 1 -6.2 -2.8 V 12.3 C 609.5 2.5 607.1 0 597.3 0 H 594 c -9.8 0 -12.3 2.5 -12.3 12.3 V 142.4 c 0 38.4 22.6 58.4 62.2 58.4 c 41.7 0 62.4 -19.4 62.4 -58.4 V 118.9 C 706.3 79.4 687.5 59.5 649.6 59.5 Z m 28.6 82.3 c 0 23.7 -7.9 32.4 -34.1 32.4 s -34.6 -9.3 -34.6 -32.4 V 118.4 c 0 -23.7 8.7 -32.7 34.6 -32.7 s 34.1 9 34.1 32.7 Z" />
    <path class="logo-white"
      d="M 554.9 61.6 c -1.7 -1.8 -4.3 -2.6 -9.1 -2.6 H 542.2 c -5.1 0 -8 0.8 -10 2.9 s -3.1 5 -3.8 10.6 l -11.3 89.4 c -0.6 4.8 -1.4 7.9 -2.7 9.6 c -1.6 2.2 -4.8 2.7 -7.3 2 a 5.1 5.1 0 0 1 -2.3 -1.3 c -1.7 -1.7 -1.6 -4.4 -2 -6.6 c -0.2 -1.3 -9 -68.3 -9 -68.3 c -1.4 -10.4 -3.9 -17 -8 -21.3 s -12.2 -6.4 -21 -6.4 h -0.2 c -8.8 0 -16.8 2 -21 6.4 s -6.6 10.9 -8 21.3 c 0 0 -8.7 67 -9 68.3 c -0.4 2.2 -0.3 4.9 -2 6.6 a 5.1 5.1 0 0 1 -2.3 1.3 c -2.5 0.6 -5.7 0.1 -7.3 -2 c -1.3 -1.7 -2.1 -4.8 -2.7 -9.6 L 401.1 72.5 c -0.7 -5.5 -1.8 -8.6 -3.8 -10.6 s -5 -2.9 -10 -2.9 h -3.6 c -4.8 0 -7.5 0.8 -9.1 2.6 C 372.4 64 372.4 67.8 373 72.9 l 11.7 90.7 a 80.6 80.6 0 0 0 3.6 16.8 A 32.2 32.2 0 0 0 395 192.1 c 5.5 6 13.6 8.7 25.4 8.7 c 10.6 0 18.3 -2.8 23.2 -8.8 c 4.7 -5.7 5.6 -14.5 7.3 -28.4 L 459 106.4 c 1.3 -9.9 3.7 -9.9 5.7 -9.9 h 0.2 c 1.9 0 4.4 0 5.7 9.9 l 8.1 57.3 c 1.7 13.9 2.5 22.6 7.3 28.4 c 5 6 12.7 8.8 23.2 8.8 c 11.8 0 19.8 -2.8 25.4 -8.7 a 32.2 32.2 0 0 0 6.7 -11.6 a 80.6 80.6 0 0 0 3.6 -16.8 l 11.7 -90.7 C 557.1 67.8 557.1 64 554.9 61.6 Z" />
    <path class="logo-red"
      d="M 1064.9 200.7 h -14 a 16.6 16.6 0 0 1 -12.2 -4.9 l -30.2 -32.9 l -0.7 -0.8 a 3.5 3.5 0 0 0 -1.4 -0.9 a 4.6 4.6 0 0 0 -3.1 0 a 3.6 3.6 0 0 0 -1.3 0.9 l -0.7 0.8 L 971 195.8 a 16.6 16.6 0 0 1 -12.2 4.9 h -14 c -5.5 0 -8.7 -5.1 -5.4 -8.7 L 983 144.9 c 0.3 -0.3 0.5 -0.6 0.8 -0.8 a 24 24 0 0 1 2 -1.8 a 26 26 0 0 1 2.2 -1.6 a 32.6 32.6 0 0 1 33.7 0 c 0.8 0.5 1.5 1 2.2 1.6 a 25.8 25.8 0 0 1 2 1.8 c 0.3 0.3 0.5 0.5 0.8 0.8 L 1070.3 192 C 1073.6 195.6 1070.4 200.7 1064.9 200.7 Z" />
    <path class="logo-blue"
      d="M 1064.9 59.6 h -14 a 16.6 16.6 0 0 0 -12.2 4.9 l -30.2 32.9 l -0.7 0.8 a 3.5 3.5 0 0 1 -1.4 0.9 a 4.5 4.5 0 0 1 -3.1 0 a 3.6 3.6 0 0 1 -1.3 -0.9 l -0.7 -0.8 L 971 64.5 a 16.6 16.6 0 0 0 -12.2 -4.9 h -14 c -5.5 0 -8.7 5.1 -5.4 8.7 c 0 0 44.1 47.7 44.4 48 a 26.1 26.1 0 0 0 2 1.8 c 0.7 0.6 1.4 1.1 2.2 1.6 a 32.6 32.6 0 0 0 33.7 0 c 0.8 -0.5 1.5 -1 2.2 -1.6 a 25.7 25.7 0 0 0 2 -1.8 c 0.3 -0.3 0.5 -0.5 0.8 -0.8 l 43.6 -47.2 C 1073.6 64.7 1070.4 59.6 1064.9 59.6 Z" />
    <path class="logo-white"
      d="M 916.1 73.5 c -13.1 -12.5 -32.3 -14 -45.7 -14 S 837.8 61 824.6 73.4 s -14.9 30.4 -14.9 42.8 v 28.2 c 0 9.2 0.9 21.6 6.9 32.4 a 41 41 0 0 0 7.8 10 c 13.3 12.5 32.6 13.9 46 13.9 c 2.5 0 5.1 -0.1 7.8 -0.2 c 12.8 -0.7 27.2 -3.5 37.8 -13.5 c 12.9 -12.2 14.4 -30.2 14.4 -42.6 V 116.2 C 930.4 103.8 929 85.8 916.1 73.5 Z m -11.6 68.3 c 0 23.7 -7.9 32.4 -34.1 32.4 s -34.6 -9.3 -34.6 -32.4 V 118.4 c 0 -23.7 8.7 -32.7 34.6 -32.7 s 34.1 9 34.1 32.7 Z" />
    <path class="logo-white"
      d="M 224.6 71.1 v 3.2 c 0 9.7 -2.5 12.2 -12.3 12.2 H 204 a 25 25 0 0 0 -25 25 v 77.8 c -0.1 9.1 -2.7 11.4 -12.1 11.4 h -3.2 c -9.7 0 -12.2 -2.5 -12.2 -12.3 V 110 a 51.1 51.1 0 0 1 51 -51 h 9.8 C 222.1 59 224.6 61.4 224.6 71.1 Z" />
    <path class="logo-white"
      d="M 799.3 185.3 v 3.2 c 0 9.7 -2.5 12.2 -12.3 12.2 H 784.2 c -1.4 0 -2.7 -0.1 -4.1 -0.2 A 51.1 51.1 0 0 1 733.2 149.7 s 0 -118.3 0 -118.6 c 0.1 -9.1 2.7 -11.4 12.1 -11.4 h 3.2 c 9.4 0 12 2.3 12.1 11.4 v 117 a 25 25 0 0 0 25 25 h 2.1 C 797 173.3 799.3 175.9 799.3 185.3 Z" />
    <path class="logo-white"
      d="M 269.2 140.3 h 63 c 13.6 0 21.6 -11.1 21.6 -24.7 v -2.2 C 353 77.7 333.1 59 295.8 59 C 255.3 59 235 78.7 235 118.4 v 23.8 c 0 17.9 4.5 36.7 20 47.5 c 8.3 5.7 18.4 8.4 28.2 9.9 A 110.2 110.2 0 0 0 316 199.4 a 130.1 130.1 0 0 0 16.1 -3.5 c 2.6 -0.8 5.3 -1.6 7.9 -2.5 c 2.3 -0.8 4.7 -1.3 6.6 -2.9 c 2.8 -2.3 2.6 -6.5 2.6 -9.8 v -3.6 c 0 -3.6 0 -8.4 -3.9 -10 c -4.7 -1.9 -11.8 1.1 -16.4 2.5 a 111.5 111.5 0 0 1 -27 4.7 c -9.6 0.3 -21.5 -0.7 -29.4 -6.6 c -6.7 -5 -9.3 -13.3 -9.3 -21.4 A 6 6 0 0 1 269.2 140.3 Z m -6 -26.7 v -3.1 c 0 -18.1 10.7 -27.1 31.8 -27.1 c 21.6 0 32.3 9 32.3 27.1 a 6.8 6.8 0 0 1 -6.8 6.8 H 266.9 A 3.7 3.7 0 0 1 263.2 113.6 Z" />
  </g>
</svg>
