<svg xmlns="http://www.w3.org/2000/svg" viewBox="0 0 542.22 457.06">
  <defs>
    <style>
      .logo-grey {
        fill: #4c4c4c;
      }

      .logo-red {
        fill: #df2b35;
      }

      .logo-blue {
        fill: #037cd5;
      }
    </style>
  </defs>
  <g>
    <path class="logo-grey"
      d="M34.35,385.56c-7.49,0-13.2,1.77-17.14,5.26a1.88,1.88,0,0,1-3.14-1.4V361.67c0-5-1.24-6.2-6.21-6.2H6.21c-5,0-6.21,1.24-6.21,6.2V427.5C0,447,11.45,457,31.45,457c21.11,0,31.6-9.8,31.6-29.52V415.63C63.05,395.63,53.53,385.56,34.35,385.56Zm14.49,41.66c0,12-4,16.42-17.25,16.42S14.07,439,14.07,427.22V415.36c0-12,4.41-16.56,17.52-16.56s17.25,4.56,17.25,16.56Z" />
    <path class="logo-grey"
      d="M328.68,385.56c-7.48,0-13.19,1.77-17.13,5.26a1.88,1.88,0,0,1-3.14-1.4V361.67c0-5-1.24-6.2-6.21-6.2h-1.66c-5,0-6.21,1.24-6.21,6.2V427.5c0,19.45,11.45,29.52,31.46,29.52,21.11,0,31.59-9.8,31.59-29.52V415.63C357.38,395.63,347.86,385.56,328.68,385.56Zm14.49,41.66c0,12-4,16.42-17.24,16.42s-17.52-4.69-17.52-16.42V415.36c0-12,4.41-16.56,17.52-16.56s17.24,4.56,17.24,16.56Z" />
    <path class="logo-grey"
      d="M280.78,386.65c-.85-.93-2.19-1.31-4.62-1.31h-1.82c-2.56,0-4,.42-5.08,1.46s-1.56,2.56-1.9,5.36l-5.7,45.23c-.29,2.44-.73,4-1.37,4.86a3.58,3.58,0,0,1-3.7,1,2.73,2.73,0,0,1-1.18-.64c-.87-.87-.8-2.24-1-3.36-.12-.66-4.54-34.55-4.54-34.55-.72-5.27-2-8.6-4-10.77s-6.18-3.25-10.62-3.25h-.12c-4.44,0-8.5,1-10.62,3.25s-3.32,5.5-4,10.77c0,0-4.42,33.89-4.54,34.55-.2,1.12-.13,2.49-1,3.36a2.64,2.64,0,0,1-1.17.64,3.58,3.58,0,0,1-3.7-1c-.65-.88-1.08-2.42-1.37-4.86l-5.7-45.23c-.35-2.8-.9-4.36-1.9-5.36s-2.52-1.46-5.08-1.46h-1.82c-2.43,0-3.78.38-4.63,1.31-1.08,1.2-1.09,3.15-.78,5.71l5.94,45.9a40.67,40.67,0,0,0,1.8,8.5,16.38,16.38,0,0,0,3.37,5.89c2.81,3,6.88,4.41,12.83,4.41,5.35,0,9.25-1.41,11.76-4.45s2.83-7.31,3.68-14.35l4.11-29c.64-5,1.89-5,2.87-5h.12c1,0,2.23,0,2.86,5l4.12,29c.85,7,1.28,11.46,3.68,14.35s6.41,4.45,11.75,4.45c6,0,10-1.4,12.84-4.41a16.38,16.38,0,0,0,3.37-5.89,40.67,40.67,0,0,0,1.8-8.5l5.94-45.9C281.88,389.8,281.87,387.85,280.78,386.65Z" />
    <path class="logo-grey"
      d="M538.81,457h-7.1a8.4,8.4,0,0,1-6.16-2.5l-15.29-16.63-.37-.41a1.84,1.84,0,0,0-.68-.45,2.3,2.3,0,0,0-.79-.14,2.25,2.25,0,0,0-.78.14,1.76,1.76,0,0,0-.68.45l-.38.41L491.3,454.52a8.4,8.4,0,0,1-6.16,2.5H478c-2.8,0-4.41-2.57-2.73-4.39l22.05-23.86.41-.42a10.94,10.94,0,0,1,1-.9c.36-.28.73-.54,1.11-.79a16.56,16.56,0,0,1,17,0,12.64,12.64,0,0,1,1.12.8c.35.28.7.58,1,.89l.41.42,22,23.86C543.21,454.45,541.61,457,538.81,457Z" />
    <path class="logo-grey"
      d="M538.81,385.6h-7.1a8.4,8.4,0,0,0-6.16,2.5l-15.29,16.63-.37.41a1.84,1.84,0,0,1-.68.45,2.09,2.09,0,0,1-.79.14,2,2,0,0,1-.78-.14,1.76,1.76,0,0,1-.68-.45l-.38-.41L491.3,388.1a8.4,8.4,0,0,0-6.16-2.5H478c-2.8,0-4.41,2.58-2.73,4.39,0,0,22.32,24.15,22.46,24.28a10.94,10.94,0,0,0,1,.9c.36.28.73.54,1.11.79a16.5,16.5,0,0,0,17,0c.39-.25.76-.51,1.12-.79a12.38,12.38,0,0,0,1-.9l.41-.42,22-23.86C543.21,388.18,541.61,385.6,538.81,385.6Z" />
    <path class="logo-grey"
      d="M463.52,392.66c-6.61-6.33-16.35-7.06-23.1-7.06s-16.49.72-23.19,7-7.52,15.39-7.52,21.67v14.29c0,4.67.44,10.92,3.5,16.39a20.83,20.83,0,0,0,3.94,5.05c6.71,6.31,16.5,7,23.27,7,1.26,0,2.58,0,3.93-.1,6.49-.33,13.74-1.75,19.12-6.84,6.55-6.19,7.31-15.26,7.31-21.54V414.25C470.78,408,470,398.9,463.52,392.66Zm-5.89,34.56c0,12-4,16.42-17.25,16.42s-17.52-4.69-17.52-16.42V415.36c0-12,4.42-16.56,17.52-16.56s17.25,4.56,17.25,16.56Z" />
    <path class="logo-grey"
      d="M113.62,391.46v1.64c0,4.92-1.25,6.15-6.22,6.15h-4.16a12.68,12.68,0,0,0-12.66,12.66v39.35c-.08,4.59-1.38,5.76-6.14,5.76H82.8c-4.92,0-6.15-1.24-6.15-6.21V411.13a25.83,25.83,0,0,1,25.81-25.81h4.94C112.37,385.32,113.62,386.54,113.62,391.46Z" />
    <path class="logo-grey"
      d="M404.41,449.24v1.63c0,4.92-1.24,6.15-6.21,6.15h-1.41c-.69,0-1.38,0-2.05-.08A25.85,25.85,0,0,1,371,431.21s0-59.85,0-60c.08-4.59,1.38-5.76,6.14-5.76h1.64c4.77,0,6.07,1.17,6.14,5.76v59.21a12.68,12.68,0,0,0,12.66,12.66h1.08C403.24,443.17,404.41,444.47,404.41,449.24Z" />
    <path class="logo-grey"
      d="M136.23,426.46h31.9c6.89,0,10.9-5.59,10.9-12.49v-1.11c-.4-18.1-10.49-27.55-29.36-27.55-20.5,0-30.75,10-30.75,30.07v12.05c0,9.07,2.27,18.59,10.13,24,4.18,2.89,9.3,4.24,14.27,5a55.71,55.71,0,0,0,16.56-.08,66.77,66.77,0,0,0,8.17-1.77c1.34-.38,2.66-.81,4-1.27a10,10,0,0,0,3.33-1.47c1.39-1.15,1.34-3.27,1.34-4.93v-1.81c0-1.81,0-4.25-1.95-5.07-2.36-1-6,.58-8.29,1.24a56.42,56.42,0,0,1-13.68,2.4c-4.86.15-10.88-.35-14.89-3.36-3.38-2.54-4.7-6.71-4.7-10.8A3.06,3.06,0,0,1,136.23,426.46Zm-3-13.51v-1.59c0-9.14,5.41-13.72,16.07-13.72,10.95,0,16.35,4.58,16.35,13.72a3.47,3.47,0,0,1-3.46,3.47H135.05A1.88,1.88,0,0,1,133.18,413Z" />
    <path class="logo-red"
      d="M399.8,302.52H369.74c-10.31,0-20-3.93-26.1-10.6L278.9,221.48l-1.57-1.73a7.65,7.65,0,0,0-2.88-1.91,9.45,9.45,0,0,0-3.35-.59,9.35,9.35,0,0,0-3.33.59,7.58,7.58,0,0,0-2.88,1.91l-1.58,1.73-64.73,70.44c-6.11,6.67-15.8,10.6-26.1,10.6H142.42c-11.87,0-18.67-10.91-11.58-18.59l93.4-101.07c.55-.62,1.14-1.21,1.73-1.78a51.72,51.72,0,0,1,4.32-3.8,57,57,0,0,1,4.73-3.35,69.94,69.94,0,0,1,72.18,0,52.5,52.5,0,0,1,4.73,3.36,51.72,51.72,0,0,1,4.32,3.8c.59.58,1.16,1.15,1.72,1.77l93.41,101.07C418.47,291.61,411.67,302.52,399.8,302.52Z" />
    <path class="logo-blue"
      d="M399.8,0H369.74c-10.31,0-20,3.93-26.1,10.59L278.9,81l-1.57,1.74a7.77,7.77,0,0,1-2.88,1.91,9.68,9.68,0,0,1-3.35.59,9.57,9.57,0,0,1-3.33-.59,7.69,7.69,0,0,1-2.88-1.91L263.31,81,198.58,10.59C192.47,3.93,182.78,0,172.48,0H142.42c-11.87,0-18.67,10.9-11.58,18.58,0,0,94.54,102.28,95.13,102.86a51.72,51.72,0,0,0,4.32,3.8,57,57,0,0,0,4.73,3.35,69.94,69.94,0,0,0,72.18,0,52.61,52.61,0,0,0,4.73-3.37,51.6,51.6,0,0,0,4.32-3.79c.59-.58,1.16-1.16,1.72-1.78L411.38,18.58C418.47,10.9,411.67,0,399.8,0Z" />
  </g>
</svg>
