<svg xmlns="http://www.w3.org/2000/svg" viewBox="0 0 286.3 302.52">
  <defs>
    <style>
      .logo-red {
        fill: #df2b35;
      }

      .logo-blue {
        fill: #037cd5;
      }
    </style>
  </defs>
  <g>
    <path class="logo-red"
      d="M271.84,302.52H241.78c-10.31,0-20-3.93-26.1-10.6L151,221.48l-1.58-1.73a7.65,7.65,0,0,0-2.88-1.91,9.75,9.75,0,0,0-6.68,0,7.65,7.65,0,0,0-2.88,1.91l-1.57,1.73L70.62,291.92c-6.11,6.67-15.79,10.6-26.1,10.6H14.46c-11.87,0-18.67-10.91-11.58-18.59l93.4-101.07c.55-.62,1.14-1.21,1.73-1.78a51.72,51.72,0,0,1,4.32-3.8,57,57,0,0,1,4.73-3.35,69.94,69.94,0,0,1,72.18,0,52.5,52.5,0,0,1,4.73,3.36,51.72,51.72,0,0,1,4.32,3.8c.59.58,1.16,1.15,1.72,1.77l93.41,101.07C290.51,291.61,283.71,302.52,271.84,302.52Z" />
    <path class="logo-blue"
      d="M271.84,0H241.78c-10.31,0-20,3.93-26.1,10.59L151,81l-1.58,1.74a7.77,7.77,0,0,1-2.88,1.91,9.75,9.75,0,0,1-6.68,0,7.77,7.77,0,0,1-2.88-1.91L135.36,81,70.62,10.59C64.51,3.93,54.83,0,44.52,0H14.46C2.59,0-4.21,10.9,2.88,18.58c0,0,94.54,102.28,95.13,102.86a51.72,51.72,0,0,0,4.32,3.8,57,57,0,0,0,4.73,3.35,69.94,69.94,0,0,0,72.18,0,52.61,52.61,0,0,0,4.73-3.37,51.6,51.6,0,0,0,4.32-3.79c.59-.58,1.16-1.16,1.72-1.78L283.42,18.58C290.51,10.9,283.71,0,271.84,0Z" />
  </g>
</svg>
