<svg xmlns="http://www.w3.org/2000/svg" viewBox="0 0 848.01 142.6">
  <defs>
    <style>
      .logo-white {
        fill: #ededed;
      }

      .logo-red {
        fill: #df2b35;
      }

      .logo-blue {
        fill: #037cd5;
      }
    </style>
  </defs>
  <g>
    <path class="logo-white"
      d="M221.3,45.57c-9.24,0-16.29,2.19-21.15,6.49a2.32,2.32,0,0,1-3.87-1.72V16.09c0-6.12-1.53-7.66-7.66-7.66h-2c-6.13,0-7.67,1.54-7.67,7.66V97.32c0,24,14.13,36.43,38.82,36.43,26,0,39-12.09,39-36.43V82.68C256.71,58,245,45.57,221.3,45.57ZM239.18,97c0,14.81-4.94,20.26-21.28,20.26S196.28,111.45,196.28,97V82.34c0-14.81,5.44-20.43,21.62-20.43s21.28,5.62,21.28,20.43Z" />
    <path class="logo-white"
      d="M584.51,45.57c-9.23,0-16.28,2.19-21.15,6.49a2.32,2.32,0,0,1-3.87-1.72V16.09c0-6.12-1.53-7.66-7.66-7.66h-2.05c-6.12,0-7.66,1.54-7.66,7.66V97.32c0,24,14.13,36.43,38.82,36.43,26,0,39-12.09,39-36.43V82.68C619.92,58,608.18,45.57,584.51,45.57ZM602.39,97c0,14.81-4.94,20.26-21.28,20.26S559.49,111.45,559.49,97V82.34c0-14.81,5.45-20.43,21.62-20.43s21.28,5.62,21.28,20.43Z" />
    <path class="logo-white"
      d="M525.4,46.92c-1-1.15-2.7-1.62-5.7-1.62h-2.25c-3.16,0-5,.52-6.26,1.8s-1.93,3.15-2.35,6.62l-7,55.81c-.37,3-.9,4.91-1.69,6a4.42,4.42,0,0,1-4.57,1.26,3.13,3.13,0,0,1-1.45-.79c-1.08-1.07-1-2.76-1.25-4.14-.14-.81-5.6-42.63-5.6-42.63-.88-6.51-2.42-10.62-5-13.3s-7.62-4-13.1-4H469c-5.47,0-10.49,1.27-13.09,4s-4.11,6.79-5,13.3c0,0-5.46,41.82-5.6,42.63-.25,1.38-.17,3.07-1.25,4.14a3.13,3.13,0,0,1-1.45.79,4.42,4.42,0,0,1-4.57-1.26c-.79-1.09-1.33-3-1.69-6l-7-55.81c-.42-3.47-1.1-5.38-2.35-6.62s-3.1-1.8-6.27-1.8h-2.24c-3,0-4.65.47-5.7,1.62-1.35,1.47-1.36,3.88-1,7l7.33,56.64a50.46,50.46,0,0,0,2.22,10.5,20.24,20.24,0,0,0,4.16,7.26c3.46,3.71,8.49,5.44,15.83,5.44,6.6,0,11.42-1.74,14.52-5.49,2.95-3.56,3.48-9,4.53-17.7l5.08-35.76c.79-6.2,2.33-6.2,3.53-6.2h.15c1.21,0,2.75,0,3.54,6.2l5.08,35.76c1.05,8.68,1.58,14.14,4.53,17.7,3.1,3.75,7.92,5.49,14.51,5.49,7.35,0,12.38-1.73,15.84-5.44a20.24,20.24,0,0,0,4.16-7.26A51.11,51.11,0,0,0,519,110.6L526.37,54C526.76,50.8,526.74,48.39,525.4,46.92Z" />
    <path class="logo-white"
      d="M843.8,133.75H835a10.35,10.35,0,0,1-7.6-3.08l-18.86-20.52-.46-.51a2.3,2.3,0,0,0-.84-.56,2.83,2.83,0,0,0-1-.17,2.87,2.87,0,0,0-1,.17,2.3,2.3,0,0,0-.84.56l-.46.51-18.86,20.52a10.35,10.35,0,0,1-7.6,3.08h-8.76c-3.46,0-5.44-3.17-3.37-5.41L792.66,98.9c.16-.19.33-.36.5-.53a14.59,14.59,0,0,1,1.26-1.1c.44-.35.9-.67,1.38-1a20.39,20.39,0,0,1,21,0c.47.31.93.63,1.37,1a16.66,16.66,0,0,1,1.26,1.11c.17.17.34.33.5.52l27.22,29.44C849.24,130.58,847.26,133.75,843.8,133.75Z" />
    <path class="logo-white"
      d="M843.8,45.62H835a10.35,10.35,0,0,0-7.6,3.09L808.58,69.23l-.46.5a2.18,2.18,0,0,1-.84.56,2.61,2.61,0,0,1-1,.17,2.64,2.64,0,0,1-1-.17,2.18,2.18,0,0,1-.84-.56l-.46-.5L785.18,48.71a10.35,10.35,0,0,0-7.6-3.09h-8.76c-3.46,0-5.44,3.18-3.37,5.42,0,0,27.54,29.79,27.71,30a16.66,16.66,0,0,0,1.26,1.11,14.85,14.85,0,0,0,1.38,1,20.33,20.33,0,0,0,21,0,14.29,14.29,0,0,0,1.37-1,14.59,14.59,0,0,0,1.26-1.1c.17-.17.34-.34.5-.52L847.18,51C849.24,48.8,847.26,45.62,843.8,45.62Z" />
    <path class="logo-white"
      d="M750.9,54.33c-8.16-7.81-20.18-8.71-28.51-8.71s-20.34.89-28.61,8.62-9.28,19-9.28,26.73V98.61c0,5.77.54,13.47,4.32,20.22a25.28,25.28,0,0,0,4.86,6.24c8.29,7.78,20.35,8.68,28.71,8.68,1.56,0,3.18,0,4.85-.12,8-.41,17-2.16,23.6-8.44,8.08-7.64,9-18.83,9-26.58V81C759.86,73.23,758.93,62,750.9,54.33ZM743.63,97c0,14.81-4.94,20.26-21.28,20.26S700.73,111.45,700.73,97V82.34c0-14.81,5.45-20.43,21.62-20.43s21.28,5.62,21.28,20.43Z" />
    <path class="logo-white"
      d="M319.12,52.85v2c0,6.07-1.54,7.58-7.67,7.58h-5.14a15.64,15.64,0,0,0-15.62,15.63v48.56c-.09,5.66-1.7,7.11-7.58,7.11h-2c-6.07,0-7.59-1.54-7.59-7.67v-49a31.88,31.88,0,0,1,31.85-31.85h6.1C317.58,45.27,319.12,46.79,319.12,52.85Z" />
    <path class="logo-white"
      d="M678,124.15v2c0,6.07-1.54,7.59-7.67,7.59h-1.74c-.85,0-1.69,0-2.53-.1a31.9,31.9,0,0,1-29.31-31.75s0-73.86,0-74c.09-5.66,1.7-7.1,7.58-7.1h2c5.88,0,7.49,1.44,7.58,7.1v73.07a15.64,15.64,0,0,0,15.62,15.62h1.33C676.52,116.66,678,118.26,678,124.15Z" />
    <path class="logo-white"
      d="M347,96.05h39.36c8.51,0,13.46-6.91,13.46-15.42V79.26c-.5-22.34-12.95-34-36.23-34-25.3,0-37.95,12.31-37.95,37.1V97.24c0,11.19,2.8,22.93,12.5,29.63,5.16,3.57,11.48,5.23,17.62,6.16a68.25,68.25,0,0,0,20.43-.1,79.86,79.86,0,0,0,10.07-2.18c1.66-.47,3.29-1,4.91-1.56a12.45,12.45,0,0,0,4.11-1.82c1.72-1.42,1.65-4,1.65-6.09v-2.22c0-2.23,0-5.25-2.41-6.26-2.91-1.21-7.39.72-10.23,1.53a69.75,69.75,0,0,1-16.88,3c-6,.19-13.42-.43-18.37-4.14-4.17-3.14-5.8-8.28-5.8-13.33A3.77,3.77,0,0,1,347,96.05Zm-3.76-16.67v-2c0-11.28,6.67-16.93,19.83-16.93,13.51,0,20.18,5.65,20.18,16.93A4.28,4.28,0,0,1,379,81.69H345.57A2.31,2.31,0,0,1,343.26,79.38Z" />
    <path class="logo-red"
      d="M128.14,142.6H114a16.75,16.75,0,0,1-12.31-5L71.15,104.4l-.74-.82a3.68,3.68,0,0,0-1.36-.9,4.57,4.57,0,0,0-3.15,0,3.64,3.64,0,0,0-1.35.9l-.75.82L33.29,137.6a16.72,16.72,0,0,1-12.3,5H6.81c-5.59,0-8.79-5.14-5.45-8.76l44-47.64c.26-.3.54-.57.82-.85.65-.63,1.33-1.23,2-1.79S49.7,82.48,50.46,82a33,33,0,0,1,34,0,27.25,27.25,0,0,1,2.23,1.59,24.51,24.51,0,0,1,2,1.79c.28.27.55.54.81.84l44,47.64C136.94,137.46,133.73,142.6,128.14,142.6Z" />
    <path class="logo-blue"
      d="M128.14,0H114a16.78,16.78,0,0,0-12.31,5L71.15,38.2l-.74.81a3.45,3.45,0,0,1-1.36.9,4.57,4.57,0,0,1-3.15,0,3.41,3.41,0,0,1-1.35-.9l-.75-.81L33.29,5A16.75,16.75,0,0,0,21,0H6.81C1.22,0-2,5.14,1.36,8.76c0,0,44.56,48.21,44.84,48.48a24.3,24.3,0,0,0,2,1.79c.72.57,1.47,1.09,2.23,1.58a33,33,0,0,0,34,0A24.93,24.93,0,0,0,86.72,59a26.5,26.5,0,0,0,2-1.79c.28-.28.55-.55.81-.84l44-47.64C136.94,5.14,133.73,0,128.14,0Z" />
  </g>
</svg>
