<svg xmlns="http://www.w3.org/2000/svg" viewBox="0 0 1071.62 200.79">
  <defs>
    <style>
      .logo-grey {
        fill: #4c4c4c;
      }

      .logo-red {
        fill: #df2b35;
      }

      .logo-blue {
        fill: #037cd5;
      }
    </style>
  </defs>
  <g>
    <path class="logo-grey"
      d="M67.89,59.48C53.09,59.48,41.8,63,34,69.87a3.72,3.72,0,0,1-6.2-2.76V12.27C27.81,2.46,25.36,0,15.54,0H12.27C2.46,0,0,2.46,0,12.27V142.36c0,38.44,22.63,58.35,62.16,58.35,41.72,0,62.44-19.36,62.44-58.35V118.91C124.6,79.38,105.79,59.48,67.89,59.48Zm28.63,82.34c0,23.72-7.91,32.44-34.08,32.44S27.81,165,27.81,141.82V118.37c0-23.72,8.72-32.72,34.63-32.72s34.08,9,34.08,32.72Z" />
    <path class="logo-grey"
      d="M649.6,59.48c-14.79,0-26.08,3.5-33.87,10.39a3.73,3.73,0,0,1-6.21-2.76V12.27C609.52,2.46,607.07,0,597.25,0H594c-9.81,0-12.27,2.46-12.27,12.27V142.36c0,38.44,22.63,58.35,62.17,58.35,41.71,0,62.43-19.36,62.43-58.35V118.91C706.31,79.38,687.5,59.48,649.6,59.48Zm28.63,82.34c0,23.72-7.91,32.44-34.08,32.44s-34.63-9.27-34.63-32.44V118.37c0-23.72,8.73-32.72,34.63-32.72s34.08,9,34.08,32.72Z" />
    <path class="logo-grey"
      d="M554.93,61.64c-1.68-1.84-4.33-2.6-9.14-2.6H542.2c-5.07,0-8,.84-10,2.89s-3.08,5.05-3.76,10.6l-11.26,89.39c-.58,4.81-1.44,7.86-2.71,9.6-1.58,2.17-4.83,2.67-7.31,2a5.13,5.13,0,0,1-2.33-1.27c-1.73-1.72-1.59-4.42-2-6.64-.23-1.29-9-68.27-9-68.27-1.42-10.43-3.88-17-8-21.3s-12.21-6.42-21-6.42h-.24c-8.77,0-16.8,2-21,6.42s-6.57,10.87-8,21.3c0,0-8.74,67-9,68.27-.4,2.22-.26,4.92-2,6.64a5.13,5.13,0,0,1-2.33,1.27c-2.48.64-5.73.14-7.31-2-1.27-1.74-2.13-4.79-2.71-9.6L401.08,72.53c-.68-5.55-1.77-8.62-3.76-10.6s-5-2.89-10-2.89h-3.59c-4.81,0-7.46.76-9.14,2.6C372.4,64,372.38,67.85,373,72.91l11.74,90.72a80.58,80.58,0,0,0,3.56,16.81A32.19,32.19,0,0,0,395,192.07c5.54,6,13.6,8.72,25.36,8.72,10.56,0,18.28-2.79,23.24-8.79,4.73-5.71,5.58-14.46,7.26-28.36L459,106.38c1.26-9.93,3.73-9.93,5.66-9.93h.24c1.93,0,4.4,0,5.66,9.93l8.14,57.26c1.68,13.9,2.53,22.65,7.26,28.36,5,6,12.68,8.79,23.24,8.79,11.76,0,19.82-2.77,25.36-8.72a32.19,32.19,0,0,0,6.66-11.63,80.58,80.58,0,0,0,3.56-16.81l11.74-90.72C557.1,67.85,557.08,64,554.93,61.64Z" />
    <path class="logo-red"
      d="M1064.87,200.71h-14a16.57,16.57,0,0,1-12.18-4.94l-30.2-32.87-.74-.81a3.54,3.54,0,0,0-1.35-.89,4.61,4.61,0,0,0-3.11,0,3.58,3.58,0,0,0-1.34.89l-.74.81L971,195.77a16.59,16.59,0,0,1-12.18,4.94h-14c-5.53,0-8.71-5.09-5.4-8.67L983,144.88c.26-.29.53-.56.81-.83a24,24,0,0,1,2-1.77,26,26,0,0,1,2.21-1.57,32.64,32.64,0,0,1,33.68,0c.76.49,1.5,1,2.21,1.57a25.84,25.84,0,0,1,2,1.78c.27.26.54.53.8.82L1070.28,192C1073.58,195.62,1070.41,200.71,1064.87,200.71Z" />
    <path class="logo-blue"
      d="M1064.87,59.56h-14a16.57,16.57,0,0,0-12.18,4.94l-30.2,32.87-.74.81a3.54,3.54,0,0,1-1.35.89,4.46,4.46,0,0,1-3.11,0,3.58,3.58,0,0,1-1.34-.89l-.74-.81L971,64.5a16.59,16.59,0,0,0-12.18-4.94h-14c-5.53,0-8.71,5.09-5.4,8.67,0,0,44.11,47.72,44.39,48a26.08,26.08,0,0,0,2,1.78c.71.56,1.45,1.07,2.21,1.56a32.64,32.64,0,0,0,33.68,0c.76-.49,1.5-1,2.21-1.57a25.7,25.7,0,0,0,2-1.77c.27-.27.54-.54.8-.83l43.59-47.16C1073.58,64.65,1070.41,59.56,1064.87,59.56Z" />
    <path class="logo-grey"
      d="M916.08,73.51c-13.06-12.51-32.31-14-45.66-14S837.84,61,824.6,73.36s-14.87,30.4-14.87,42.82v28.24c0,9.24.87,21.58,6.92,32.39a41,41,0,0,0,7.79,10c13.27,12.47,32.6,13.91,46,13.91,2.5,0,5.1-.05,7.77-.19,12.83-.67,27.16-3.46,37.8-13.52,12.94-12.24,14.45-30.16,14.45-42.58V116.18C930.44,103.77,929,85.85,916.08,73.51Zm-11.64,68.31c0,23.72-7.91,32.44-34.08,32.44s-34.63-9.27-34.63-32.44V118.37c0-23.72,8.73-32.72,34.63-32.72s34.08,9,34.08,32.72Z" />
    <path class="logo-grey"
      d="M224.55,71.14v3.24c0,9.72-2.46,12.15-12.28,12.15H204a25,25,0,0,0-25,25v77.78c-.15,9.07-2.72,11.38-12.14,11.38h-3.24c-9.72,0-12.15-2.46-12.15-12.28V110a51.06,51.06,0,0,1,51-51h9.78C222.09,59,224.55,61.42,224.55,71.14Z" />
    <path class="logo-grey"
      d="M799.26,185.32v3.24c0,9.72-2.46,12.15-12.28,12.15H784.2c-1.37,0-2.72-.05-4.06-.16A51.07,51.07,0,0,1,733.2,149.7s0-118.28,0-118.57c.15-9.07,2.72-11.38,12.14-11.38h3.24c9.42,0,12,2.31,12.14,11.38v117a25,25,0,0,0,25,25h2.13C797,173.33,799.26,175.9,799.26,185.32Z" />
    <path class="logo-grey"
      d="M269.24,140.32h63c13.63,0,21.55-11.06,21.55-24.69v-2.19C353,77.66,333.09,59,295.8,59,255.28,59,235,78.71,235,118.41v23.82c0,17.92,4.49,36.73,20,47.46,8.27,5.71,18.39,8.38,28.22,9.87A110.15,110.15,0,0,0,316,199.4a130.14,130.14,0,0,0,16.13-3.5c2.65-.75,5.27-1.59,7.86-2.5,2.28-.8,4.67-1.32,6.58-2.91,2.75-2.28,2.64-6.47,2.64-9.75v-3.56c0-3.58,0-8.41-3.86-10-4.65-1.94-11.83,1.15-16.38,2.46a111.55,111.55,0,0,1-27,4.73c-9.61.31-21.5-.68-29.43-6.63-6.68-5-9.28-13.26-9.28-21.35A6,6,0,0,1,269.24,140.32Zm-6-26.7v-3.15c0-18.07,10.68-27.11,31.76-27.11,21.63,0,32.31,9,32.31,27.11a6.85,6.85,0,0,1-6.84,6.85H266.91A3.7,3.7,0,0,1,263.22,113.62Z" />
  </g>

</svg>
